HIERARCHY
ROOT hip
{
  OFFSET 0 0 0
  CHANNELS 6 Xposition Yposition Zposition Xrotation Yrotation Zrotation
  JOINT abdomen
  {
    OFFSET 0 20.6881 -0.73152
    CHANNELS 3 Xrotation Yrotation Zrotation
    JOINT chest
    {
      OFFSET 0 11.7043 -0.48768
      CHANNELS 3 Xrotation Yrotation Zrotation
      JOINT neck
      {
        OFFSET 0 22.1894 -2.19456
        CHANNELS 3 Xrotation Yrotation Zrotation
        JOINT head
        {
          OFFSET -0.24384 7.07133 1.2192
          CHANNELS 3 Xrotation Yrotation Zrotation
          JOINT leftEye
          {
            OFFSET 4.14528 8.04674 8.04672
            CHANNELS 3 Xrotation Yrotation Zrotation
            End Site
            {
              OFFSET 1 0 0
            }
          }
          JOINT rightEye
          {
            OFFSET -3.6576 8.04674 8.04672
            CHANNELS 3 Xrotation Yrotation Zrotation
            End Site
            {
              OFFSET 1 0 0
            }
          }
        }
      }
      JOINT rCollar
      {
        OFFSET -2.68224 19.2634 -4.8768
        CHANNELS 3 Xrotation Yrotation Zrotation
        JOINT rShldr
        {
          OFFSET -8.77824 -1.95073 1.46304
          CHANNELS 3 Xrotation Yrotation Zrotation
          JOINT rForeArm
          {
            OFFSET -28.1742 -1.7115 0.48768
            CHANNELS 3 Xrotation Yrotation Zrotation
            JOINT rHand
            {
              OFFSET -22.5879 0.773209 7.07136
              CHANNELS 3 Xrotation Yrotation Zrotation
              JOINT rThumb1
              {
                OFFSET -1.2192 -0.487915 3.41376
                CHANNELS 3 Xrotation Yrotation Zrotation
                JOINT rThumb2
                {
                  OFFSET -3.37035 -0.52449 3.41376
                  CHANNELS 3 Xrotation Yrotation Zrotation
                  End Site
                  {
                    OFFSET -1.78271 -1.18214 1.43049
                  }
                }
              }
              JOINT rIndex1
              {
                OFFSET -7.75947 0.938293 5.60832
                CHANNELS 3 Xrotation Yrotation Zrotation
                JOINT rIndex2
                {
                  OFFSET -2.54057 -0.884171 1.56538
                  CHANNELS 3 Xrotation Yrotation Zrotation
                  End Site
                  {
                    OFFSET -1.62519 -0.234802 1.16502
                  }
                }
              }
              JOINT rMid1
              {
                OFFSET -8.24714 1.18213 3.41376
                CHANNELS 3 Xrotation Yrotation Zrotation
                JOINT rMid2
                {
                  OFFSET -3.10165 -0.590103 1.0647
                  CHANNELS 3 Xrotation Yrotation Zrotation
                  End Site
                  {
                    OFFSET -2.48547 -0.328903 0.83742
                  }
                }
              }
              JOINT rRing1
              {
                OFFSET -8.82822 0.546677 1.51678
                CHANNELS 3 Xrotation Yrotation Zrotation
                JOINT rRing2
                {
                  OFFSET -2.60934 -0.819778 -0.0198488
                  CHANNELS 3 Xrotation Yrotation Zrotation
                  End Site
                  {
                    OFFSET -2.33842 -0.294052 0.168128
                  }
                }
              }
              JOINT rPinky1
              {
                OFFSET -8.27202 -0.0477905 -0.4584
                CHANNELS 3 Xrotation Yrotation Zrotation
                JOINT rPinky2
                {
                  OFFSET -1.82734 -0.647385 -0.700984
                  CHANNELS 3 Xrotation Yrotation Zrotation
                  End Site
                  {
                    OFFSET -1.69225 -0.51767 -0.607171
                  }
                }
              }
            }
          }
        }
      }
      JOINT lCollar
      {
        OFFSET 2.68224 19.2634 -4.8768
        CHANNELS 3 Xrotation Yrotation Zrotation
        JOINT lShldr
        {
          OFFSET 8.77824 -1.95073 1.46304
          CHANNELS 3 Xrotation Yrotation Zrotation
          JOINT lForeArm
          {
            OFFSET 28.1742 -1.7115 0.48768
            CHANNELS 3 Xrotation Yrotation Zrotation
            JOINT lHand
            {
              OFFSET 22.5879 0.773209 7.07136
              CHANNELS 3 Xrotation Yrotation Zrotation
              JOINT lThumb1
              {
                OFFSET 1.2192 -0.487915 3.41376
                CHANNELS 3 Xrotation Yrotation Zrotation
                JOINT lThumb2
                {
                  OFFSET 3.37035 -0.52449 3.41376
                  CHANNELS 3 Xrotation Yrotation Zrotation
                  End Site
                  {
                    OFFSET 1.78271 -1.18214 1.43049
                  }
                }
              }
              JOINT lIndex1
              {
                OFFSET 7.75947 0.938293 5.60832
                CHANNELS 3 Xrotation Yrotation Zrotation
                JOINT lIndex2
                {
                  OFFSET 2.54057 -0.884171 1.56538
                  CHANNELS 3 Xrotation Yrotation Zrotation
                  End Site
                  {
                    OFFSET 1.62519 -0.234802 1.16502
                  }
                }
              }
              JOINT lMid1
              {
                OFFSET 8.24714 1.18213 3.41376
                CHANNELS 3 Xrotation Yrotation Zrotation
                JOINT lMid2
                {
                  OFFSET 3.10165 -0.590103 1.0647
                  CHANNELS 3 Xrotation Yrotation Zrotation
                  End Site
                  {
                    OFFSET 2.48547 -0.328903 0.83742
                  }
                }
              }
              JOINT lRing1
              {
                OFFSET 8.82822 0.546677 1.51678
                CHANNELS 3 Xrotation Yrotation Zrotation
                JOINT lRing2
                {
                  OFFSET 2.60934 -0.819778 -0.0198488
                  CHANNELS 3 Xrotation Yrotation Zrotation
                  End Site
                  {
                    OFFSET 2.33842 -0.294052 0.168128
                  }
                }
              }
              JOINT lPinky1
              {
                OFFSET 8.27202 -0.0477905 -0.4584
                CHANNELS 3 Xrotation Yrotation Zrotation
                JOINT lPinky2
                {
                  OFFSET 1.82734 -0.647385 -0.700984
                  CHANNELS 3 Xrotation Yrotation Zrotation
                  End Site
                  {
                    OFFSET 1.69225 -0.51767 -0.607171
                  }
                }
              }
            }
          }
        }
      }
    }
  }
  JOINT rButtock
  {
    OFFSET -8.77824 4.35084 1.2192
    CHANNELS 3 Xrotation Yrotation Zrotation
    JOINT rThigh
    {
      OFFSET 0 -1.70687 -2.19456
      CHANNELS 3 Xrotation Yrotation Zrotation
      JOINT rShin
      {
        OFFSET 0 -36.8199 0.73152
        CHANNELS 3 Xrotation Yrotation Zrotation
        JOINT rFoot
        {
          OFFSET 0.73152 -45.1104 -5.12064
          CHANNELS 3 Xrotation Yrotation Zrotation
          End Site
          {
            OFFSET -1.1221 -3.69964 12.103
          }
        }
      }
    }
  }
  JOINT lButtock
  {
    OFFSET 8.77824 4.35084 1.2192
    CHANNELS 3 Xrotation Yrotation Zrotation
    JOINT lThigh
    {
      OFFSET 0 -1.70687 -2.19456
      CHANNELS 3 Xrotation Yrotation Zrotation
      JOINT lShin
      {
        OFFSET 0 -36.8199 0.73152
        CHANNELS 3 Xrotation Yrotation Zrotation
        JOINT lFoot
        {
          OFFSET -0.73152 -45.1104 -5.12064
          CHANNELS 3 Xrotation Yrotation Zrotation
          End Site
          {
            OFFSET 1.1221 -3.69964 12.103
          }
        }
      }
    }
  }
}
MOTION
Frames:	5
Frame Time:	0.00833333
80.181900 67.500397 56.186699 165.048325 62.568619 148.894383 21.655740 -2.853116 13.681396 -0.463802 -4.394931 7.849777 6.726561 -33.954996 -15.158883 -21.990924 23.389932 41.061656 25.615731 43.080010 -45.597609 -1.753491 -5.528089 178.550968 10.008884 11.841107 5.419273 -82.933981 -43.381382 -41.251643 -9.143993 -19.281350 141.952820 157.114619 -72.626265 -28.026816 -56.367990 -73.068445 135.700929 -123.975997 -57.675225 -53.268903 -54.044770 50.404791 3.429863 93.460144 31.936409 20.757044 1.734966 63.923827 80.403942 155.020149 62.081194 105.014207 -34.003918 -17.917238 86.734768 70.259003 -18.127152 -83.080428 -44.269516 2.017249 -163.761155 -124.395773 -47.849772 109.234230 -157.956428 5.848188 23.764254 127.048858 -61.635057 -30.677626 -30.346407 -60.444461 -12.335917 22.636682 7.762549 24.026624 63.967146 9.972637 44.798763 -130.901049 9.913879 7.346434 -155.515103 43.418319 5.166761 -156.111773 8.429864 -2.269062 -129.198476 24.378062 12.843865 146.776294 -41.762650 -34.615674 6.124764 1.531528 -27.503762 66.164011 -13.837220 -44.981670 53.749242 -20.594935 54.666106 168.610710 -68.876816 145.290693 -27.894359 11.205089 -13.648750 99.535444 51.074779 -104.091550 40.163950 -18.784774 91.648106 50.792487 -32.539956 -78.981703 2.757716 -13.245833 7.485497 86.448558 -30.717411 90.726514 -12.644266 57.896357 -42.243386 35.249916 74.576185 -26.662242
83.411201 70.718002 56.549103 162.501520 62.143893 147.376030 -141.516017 67.770064 149.669979 -179.727186 -45.962644 -171.288183 -79.228474 -70.932304 -97.249554 -61.566971 63.075438 97.944670 34.319746 47.159944 -78.129183 -3.827999 -27.938797 172.641816 -12.054948 10.147714 11.183921 -149.636021 37.632760 -52.948653 -61.026151 61.394584 -137.022277 8.131155 -28.766552 -37.235792 -3.882264 6.426745 -14.477066 57.230329 -44.462279 -144.208588 33.114389 -33.888872 -135.863702 -38.995229 58.383446 24.967311 50.795297 62.122234 50.286197 -93.600504 -39.983017 -164.762209 -18.082227 -5.897661 58.051292 94.223466 -38.094223 -75.268153 -43.458449 6.452289 -182.001124 -13.886832 -67.606116 -137.424653 93.993809 -4.380302 7.208048 12.960448 32.655552 72.881271 96.705377 79.606398 -105.668738 180.855412 44.370204 5.745862 -6.673658 9.979105 -26.558203 36.028781 5.721355 107.104972 -54.089159 11.049306 10.535341 177.938784 18.036381 89.541576 -87.125872 24.346545 9.246491 77.437283 -48.821454 -54.486082 -154.089538 10.449898 55.088887 -9.003131 5.970812 -12.160639 24.564499 -48.102676 62.132381 -142.142457 -29.255546 143.964930 -42.515934 -13.434815 -41.561196 -14.395312 -1.347456 2.884227 -34.504834 -56.269237 -101.116463 71.799188 90.530160 -58.673554 -14.637766 27.090720 54.940416 149.038526 -8.489790 167.171294 133.974992 -10.628899 171.114133 21.304334 -0.292925 -70.605790
85.739204 73.649399 56.567699 164.432406 59.213991 150.818319 20.638851 -11.467996 17.419049 -7.161743 -11.655309 4.670348 -22.346630 -52.613016 -41.674834 -25.426674 49.277575 70.442274 12.693329 -28.608374 -121.437780 2.511782 34.261404 5.320181 82.869518 15.538613 -36.135956 -14.789252 32.544350 69.508458 68.495688 71.782308 -163.620808 8.358788 -12.327260 -40.721176 93.317388 -88.092223 -92.977204 27.248018 -24.280108 -54.966828 51.394726 -35.607152 -149.191739 21.357836 -33.448804 -170.291656 58.598239 32.605721 42.807872 155.798548 60.476432 108.145288 0.990723 2.775538 40.042827 -133.122865 -46.539845 40.829470 91.838365 -41.296260 114.947360 -110.589855 -76.077290 27.472452 128.446669 -3.925658 11.578962 -21.019622 40.286302 56.042660 -156.937838 -48.620308 31.776720 -16.500120 11.270980 -1.198128 96.131996 69.724847 100.202231 19.358115 -15.328667 6.112629 92.329119 41.746671 35.646594 4.363928 50.123613 164.112670 89.040160 6.053213 13.983287 -111.067163 -29.860618 -86.598159 -144.697292 10.219965 58.606093 32.503701 -7.539160 -26.605419 83.932878 0.982447 67.402938 -46.928580 38.394575 -72.831432 -37.182578 0.410771 1.629387 88.303976 60.119738 -96.222219 154.872780 -29.256653 105.249256 13.885909 20.175740 66.845222 0.170008 -7.207530 -2.045797 63.552634 -13.873007 94.433168 -165.911908 -47.351380 -119.564032 93.700904 -53.685689 -48.489451
87.312500 76.122498 56.414997 152.726324 63.066326 148.592833 166.484904 -52.931133 149.624582 -140.773870 79.395818 144.675719 -169.424935 61.580259 -169.189415 -145.585893 -54.638431 -124.303755 -8.310060 10.652250 -140.402814 0.467073 17.272909 0.741982 123.972081 -8.441752 -52.449082 108.142781 -13.365030 -83.756106 79.975920 -45.311322 158.789954 157.831149 -38.318316 -32.170200 -112.990799 -75.860810 47.405882 -112.486025 -29.272114 -14.388840 8.182281 -45.050219 117.422895 -27.190996 -39.699504 -175.690540 -103.574343 -50.806565 -40.321840 111.332212 -6.240250 -175.918340 -21.781496 -26.648766 26.779393 19.583727 41.641936 9.161511 56.500204 -27.944465 81.469286 164.357842 -26.066452 -27.698857 161.465295 -2.357598 18.176085 100.541084 5.268871 -69.693881 -34.978440 82.195723 -97.138414 148.984208 47.410730 9.316510 14.383350 13.490947 -12.296838 -41.956503 -25.822089 1.605768 -79.860436 18.575725 2.347495 -33.951898 67.110890 -8.168605 54.777875 2.464546 -5.228483 -95.607143 -46.543683 -67.982440 -17.945434 25.221526 -14.501796 139.151197 14.610620 18.944537 87.321016 -35.219870 80.890640 -34.724946 -2.803083 -173.288074 -71.040119 27.733118 65.746157 -10.131590 -32.776587 -94.481984 61.166030 50.320926 -23.344242 97.371099 -74.035813 -144.392292 -71.187782 -1.817761 -171.831777 38.766684 -21.486256 -96.035612 169.113853 -68.370807 126.164080 63.421366 68.197246 -120.293255
88.433403 78.053200 56.348698 160.177462 58.798765 157.630062 2.019265 46.998117 26.039888 -34.842376 -78.547704 -15.352004 28.953010 64.704757 -27.125081 -14.621875 -61.206680 21.274134 -2.590618 23.028214 -141.981310 -1.595705 10.565690 -2.481635 112.043046 0.081546 -44.353266 -51.372912 13.798958 73.497705 -49.387698 -69.461675 -167.907088 159.829720 -31.927030 -23.151694 -6.585417 1.283575 -0.976355 -10.419329 -21.437235 33.093193 24.718058 -57.247843 116.537984 -2.873754 -27.944033 -151.949895 -149.105234 -23.094366 -22.186421 142.967421 74.969835 152.651635 178.569149 1.101059 -57.286988 -110.209114 -0.584443 -33.484281 -6.380495 -50.513164 -12.847441 29.432187 59.748398 11.640385 51.256287 11.414772 -1.002586 34.526729 -2.532674 76.338956 -57.184902 81.295718 63.235581 -175.865705 40.078446 -9.563407 1.441132 21.509634 -19.688908 -22.168729 -11.428828 -22.491864 40.811797 15.468897 17.272556 21.929272 -8.766361 1.316469 116.320626 -10.583370 12.306835 165.659645 -12.057312 -31.246197 -39.706072 35.831798 -6.363175 112.956481 19.993239 28.973297 -121.068865 21.165312 -30.463934 -84.013941 53.715816 -87.595794 -61.167135 -54.352940 -53.328619 -40.312799 48.369050 36.376855 -156.349949 46.837994 -157.792746 -173.531793 -46.474709 131.471535 -67.478009 18.897342 159.688963 79.662814 8.662007 -91.102958 154.042581 -64.194776 132.967690 56.190369 45.995426 -145.389944
